<mxfile host="65bd71144e">
    <diagram name="Trang-1" id="Mr-wV52s2EsCn49ZS8TN">
        <mxGraphModel dx="832" dy="568" grid="1" gridSize="10" guides="1" tooltips="1" connect="1" arrows="1" fold="1" page="1" pageScale="1" pageWidth="827" pageHeight="1169" math="0" shadow="0">
            <root>
                <mxCell id="0"/>
                <mxCell id="1" parent="0"/>
                <mxCell id="_yP07stUM4GRcgfbcjh1-3" style="edgeStyle=orthogonalEdgeStyle;rounded=0;orthogonalLoop=1;jettySize=auto;html=1;entryX=0;entryY=0.5;entryDx=0;entryDy=0;" parent="1" target="_yP07stUM4GRcgfbcjh1-1" edge="1">
                    <mxGeometry relative="1" as="geometry">
                        <mxPoint x="70" y="265" as="sourcePoint"/>
                    </mxGeometry>
                </mxCell>
                <mxCell id="_yP07stUM4GRcgfbcjh1-4" style="edgeStyle=orthogonalEdgeStyle;rounded=0;orthogonalLoop=1;jettySize=auto;html=1;exitX=0.5;exitY=0.5;exitDx=0;exitDy=0;exitPerimeter=0;entryX=0;entryY=0.5;entryDx=0;entryDy=0;" parent="1" source="i0XnfLUuS6hqvGiSovnE-1" target="_yP07stUM4GRcgfbcjh1-2" edge="1">
                    <mxGeometry relative="1" as="geometry">
                        <Array as="points">
                            <mxPoint x="170" y="265"/>
                            <mxPoint x="170" y="480"/>
                        </Array>
                    </mxGeometry>
                </mxCell>
                <mxCell id="i0XnfLUuS6hqvGiSovnE-1" value="&amp;nbsp;giáo viên&lt;br&gt;&amp;nbsp;bộ môn CNTT&amp;nbsp;" style="shape=umlActor;verticalLabelPosition=bottom;verticalAlign=top;html=1;outlineConnect=0;" parent="1" vertex="1">
                    <mxGeometry x="40" y="220" width="50" height="90" as="geometry"/>
                </mxCell>
                <mxCell id="_yP07stUM4GRcgfbcjh1-1" value="&lt;font style=&quot;font-size: 18px;&quot;&gt;Thêm đối tác&lt;/font&gt;" style="ellipse;whiteSpace=wrap;html=1;" parent="1" vertex="1">
                    <mxGeometry x="280" y="80" width="120" height="80" as="geometry"/>
                </mxCell>
                <mxCell id="_yP07stUM4GRcgfbcjh1-2" value="&lt;font style=&quot;font-size: 18px;&quot;&gt;Thêm hoạt động&lt;/font&gt;" style="ellipse;whiteSpace=wrap;html=1;" parent="1" vertex="1">
                    <mxGeometry x="280" y="440" width="120" height="80" as="geometry"/>
                </mxCell>
                <mxCell id="LaPc0P_P0GLud39goD-T-2" value="&lt;font style=&quot;font-size: 14px;&quot;&gt;cập nhật thông tin đối tác&lt;/font&gt;" style="ellipse;whiteSpace=wrap;html=1;" parent="1" vertex="1">
                    <mxGeometry x="290" y="225" width="120" height="80" as="geometry"/>
                </mxCell>
                <mxCell id="LaPc0P_P0GLud39goD-T-4" style="edgeStyle=orthogonalEdgeStyle;rounded=0;orthogonalLoop=1;jettySize=auto;html=1;exitX=0.5;exitY=0.5;exitDx=0;exitDy=0;exitPerimeter=0;entryX=0;entryY=0.5;entryDx=0;entryDy=0;" parent="1" source="i0XnfLUuS6hqvGiSovnE-1" target="LaPc0P_P0GLud39goD-T-2" edge="1">
                    <mxGeometry relative="1" as="geometry">
                        <mxPoint x="280" y="265" as="targetPoint"/>
                    </mxGeometry>
                </mxCell>
            </root>
        </mxGraphModel>
    </diagram>
</mxfile>